<?xml version="1.0" encoding="utf-8"?>
<!-- Generator: Adobe Illustrator 21.1.0, SVG Export Plug-In . SVG Version: 6.00 Build 0)  -->
<svg version="1.1" id="Layer_1" xmlns="http://www.w3.org/2000/svg" xmlns:xlink="http://www.w3.org/1999/xlink" x="0px" y="0px"
	 viewBox="0 0 82.7 82.7" enable-background="new 0 0 82.7 82.7" xml:space="preserve">
<path d="M77.2,46.8l5.5-5.5l-5.5-5.5v-7.7h-4l2.8-2.8l-5.5-5.5v-7.7h-7.7l-5.4-5.4l-2.8,2.8v-4h-7.7L41.4,0l-5.5,5.5h-7.7v4
	l-2.8-2.8l-5.5,5.5h-7.7v7.7l-5.5,5.5l2.8,2.8h-4v7.7L0,41.4l5.5,5.5v7.7h4l-2.8,2.8l5.5,5.5v7.7h7.7l5.5,5.4l2.8-2.8v4h7.7l5.5,5.5
	l5.5-5.5h7.7v-4l2.8,2.8l5.5-5.5h7.7v-7.7l5.5-5.5l-2.8-2.8h4L77.2,46.8L77.2,46.8z M81.3,41.3l-4,4v-8.1L81.3,41.3z M70.3,44.2
	h-7.4l-2.8-2.8l2.8-2.8h7.4l2.8,2.8L70.3,44.2z M69.6,53l-0.5,0.5h-4.3V51l1.7-1.8l3,3V53H69.6z M59.8,63.8l-5.3-5.3v-4h4l5.2,5.2v4
	h-3.9V63.8z M53.1,69.6h-0.7l-3-3l1.7-1.7h2.5V69L53.1,69.6z M29.7,69.6L29.2,69v-4.3h2.5l1.7,1.7l-3,3h-0.7V69.6z M18.9,63.8v-4
	l5.3-5.3h4v4l-5.3,5.3H18.9z M13.2,53v-0.7l3-3l1.7,1.7v2.5h-4.3L13.2,53z M12.5,38.5h7.4l2.8,2.8l-2.8,2.8h-7.4l-2.8-2.8L12.5,38.5
	z M13.2,29.7l0.5-0.5H18v2.5l-1.7,1.7l-3-3L13.2,29.7L13.2,29.7z M22.9,18.9l5.3,5.3v4h-4l-5.3-5.3v-4
	C18.9,18.9,22.9,18.9,22.9,18.9z M29.7,13.1h0.7l3,3l-1.7,1.7h-2.5v-4.3L29.7,13.1z M53.1,13.1l0.5,0.5v4.3h-2.5l-1.7-1.7l3-3h0.7
	V13.1z M63.8,18.9v4l-5.3,5.2h-4v-4l5.3-5.3h4V18.9z M62.4,37.5h-3.7l4.8-4.8h1l1.3,1.3L62.4,37.5z M66.6,34.8l2.7,2.7h-5.4
	L66.6,34.8z M64.5,49.9h-1l-4.8-4.8h3.7l3.4,3.4L64.5,49.9z M59,53.5l-2.6-2.6h6.7l0.7,0.7v1.9C63.8,53.5,59,53.5,59,53.5z
	 M63.8,54.5v3.8L60,54.5C60,54.5,63.8,54.5,63.8,54.5z M51.7,63.8L51,63.1v-6.7l2.6,2.6v4.8C53.6,63.8,51.7,63.8,51.7,63.8z
	 M45.2,62.4v-3.7l4.8,4.8v1l-1.3,1.3L45.2,62.4z M47.9,66.5l-2.7,2.7v-5.4L47.9,66.5z M34.1,65.8l-1.3-1.3v-1l4.8-4.8v3.7L34.1,65.8
	z M37.5,63.8v5.4l-2.7-2.7L37.5,63.8z M29.2,63.8V59l2.6-2.6v6.7l-0.7,0.7C31.1,63.8,29.2,63.8,29.2,63.8z M18.9,53.5v-1.9l0.7-0.7
	h6.8l-2.6,2.6C23.8,53.5,18.9,53.5,18.9,53.5z M22.8,54.5L19,58.3v-3.8C19,54.5,22.8,54.5,22.8,54.5z M20.3,45.2H24L19.2,50h-1
	l-1.3-1.3L20.3,45.2z M16.2,47.9l-2.7-2.7h5.4L16.2,47.9z M18.2,32.8h1l4.8,4.8h-3.7l-3.4-3.4L18.2,32.8z M23.8,29.2l2.6,2.6h-6.7
	L19,31.1v-1.9C19,29.2,23.8,29.2,23.8,29.2z M18.9,28.2v-3.8l3.8,3.8H18.9z M31.1,18.9l0.7,0.7v6.7l-2.6-2.6v-4.8
	C29.2,18.9,31.1,18.9,31.1,18.9z M37.5,20.3V24l-4.8-4.8v-1l1.3-1.3L37.5,20.3z M34.8,16.2l2.7-2.7v5.4L34.8,16.2z M48.6,16.9
	l1.3,1.3v1L45.1,24v-3.7L48.6,16.9z M45.2,18.9v-5.4l2.7,2.7L45.2,18.9z M53.6,18.9v4.8L51,26.3v-6.7l0.7-0.7
	C51.7,18.9,53.6,18.9,53.6,18.9z M54.2,42L52,44.2h-0.1v-5.7H52l2.2,2.2l-0.6,0.6L54.2,42z M50,49.9v0.9h-3.1l-0.1-0.1l4-4l0.1,0.1
	v3.1H50z M41.4,53.5l-0.6,0.6l-2.2-2.2v-0.1h5.7v0.1l-2.2,2.2L41.4,53.5z M31.9,49.9v-3.1l0.1-0.1l4,4l-0.1,0.1h-3.1v-0.9H31.9z
	 M28.6,40.7l2.2-2.2h0.1v5.7h-0.1L28.6,42l0.6-0.6L28.6,40.7z M32.8,32.8v-0.9h3.1L36,32l-4,4l-0.1-0.1v-3.1H32.8z M41.4,29.2
	l0.6-0.6l2.2,2.2v0.1h-5.7v-0.1l2.2-2.2L41.4,29.2z M45.4,31.9l-0.2,0.2v-0.2H45.4L45.4,31.9z M45.4,41.3l2.8,2.8h-4v4l-2.8-2.7
	l-2.8,2.8v-4h-4l2.8-2.8l-2.8-2.8h4v-4l2.8,2.8l2.8-2.8v4h4L45.4,41.3z M49.6,38.5h1.2v5.7h-1.2l-2.8-2.8L49.6,38.5z M49.2,45.2
	l0.9,0.9l-4,4l-0.9-0.9v-4H49.2z M44.2,49.6v1.2h-5.7v-1.2l2.8-2.8L44.2,49.6z M37.5,49.2L36.7,50l-4-4l0.9-0.9h4v4.1H37.5z
	 M33.1,44.2h-1.2v-5.7h1.2l2.8,2.8L33.1,44.2z M33.5,37.5l-0.9-0.9l4-4l0.9,0.9v4H33.5z M38.5,33.1v-1.2h5.7v1.2l-2.8,2.8L38.5,33.1
	z M45.2,37.5v-4l0.9-0.9l4,4l-0.9,0.9H45.2z M37.5,31.9v0.2V31.9L37.5,31.9L37.5,31.9z M32,37.4l0.2,0.2H32V37.4L32,37.4z
	 M31.9,45.2h0.2l-0.2,0.2V45.2L31.9,45.2z M37.4,50.8l0.2-0.2v0.2H37.4L37.4,50.8z M45.2,50.8v-0.2l0.2,0.2H45.2L45.2,50.8z
	 M50.8,45.3l-0.2-0.2h0.2V45.3L50.8,45.3z M50.9,37.5h-0.2l0.2-0.2V37.5L50.9,37.5z M50.8,35.9l-4-4l0.1-0.1H50v0.9h0.9L50.8,35.9
	L50.8,35.9z M50,30.9h-2.1l2.1-2.1V30.9z M46.4,30.9h-0.7l-0.5-0.5v-5l4.8-4.8v6.7L46.4,30.9z M44.2,29.4l-1.5-1.5l1.5-1.5V29.4z
	 M40.1,27.9l-1.5,1.5v-3L40.1,27.9z M37.5,30.4L37,30.9h-0.7l-3.5-3.5v-6.7l4.8,4.8L37.5,30.4L37.5,30.4z M34.9,30.9h-2.1v-2.1
	L34.9,30.9z M30.9,32.8v2.1l-2.1-2.1H30.9z M30.9,36.3V37l-0.5,0.5h-5l-4.8-4.8h6.8L30.9,36.3z M29.4,38.5L27.9,40l-1.5-1.5H29.4z
	 M27.9,42.7l1.5,1.5h-3L27.9,42.7z M30.4,45.2l0.5,0.5v0.7l-3.5,3.5h-6.7l4.8-4.8L30.4,45.2L30.4,45.2z M30.9,47.8v2.1h-2.1
	L30.9,47.8z M32.8,51.8h2.1l-2.1,2.1V51.8z M36.3,51.8H37l0.5,0.5v5l-4.8,4.8v-6.7L36.3,51.8z M38.5,53.3l1.5,1.5l-1.5,1.5V53.3z
	 M42.7,54.8l1.5-1.5v3L42.7,54.8z M45.2,52.3l0.5-0.5h0.7l3.5,3.5V62l-4.8-4.8L45.2,52.3L45.2,52.3z M47.8,51.8h2.1v2.1L47.8,51.8z
	 M51.9,49.9v-2.1l2.1,2.1H51.9z M51.9,46.4v-0.7l0.5-0.5h5l4.8,4.8h-6.8L51.9,46.4z M53.4,44.2l1.5-1.5l1.5,1.5H53.4z M54.9,40
	l-1.5-1.5h3L54.9,40z M52.4,37.5L51.9,37v-0.7l3.5-3.5h6.7l-4.7,4.7H52.4z M51.9,34.9v-2.1H54L51.9,34.9z M54.6,31.8v-2.6h3L55,31.8
	H54.6z M53.6,30.9h-1.7v-1.7h1.7V30.9z M51,28.2v-0.4l2.6-2.6v3H51z M44.2,24.9l-0.3,0.3l-1.8-1.8l2.1-2.1V24.9z M42.6,25.3
	l-1.2,1.2l-1.2-1.2l1.2-1.2L42.6,25.3z M38.8,25.2l-0.3-0.3v-3.7l2.1,2.1L38.8,25.2z M31.8,27.7v0.4h-2.6v-3L31.8,27.7z M30.9,29.2
	v1.7h-1.7v-1.7H30.9z M28.2,31.8h-0.4l-2.6-2.6h3V31.8z M25,38.5l0.3,0.3l-1.9,1.8l-2.1-2.1H25z M25.4,40.1l1.2,1.2l-1.2,1.3
	l-1.2-1.2L25.4,40.1z M25.3,43.9L25,44.2h-3.7l2.1-2.1L25.3,43.9z M27.8,50.9h0.4v2.6h-3L27.8,50.9z M29.2,51.8h1.7v1.7h-1.7V51.8z
	 M31.8,54.5v0.4l-2.6,2.6v-3H31.8z M38.5,57.8l0.3-0.3l1.8,1.8l-2.1,2.1V57.8z M40.2,57.4l1.2-1.2l1.2,1.2l-1.2,1.2L40.2,57.4z
	 M43.9,57.5l0.3,0.3v3.7l-2.1-2.1L43.9,57.5z M51,54.9v-0.4h2.6v3L51,54.9z M51.9,53.5v-1.7h1.7v1.7H51.9z M54.6,50.9H55l2.6,2.6h-3
	C54.6,53.5,54.6,50.9,54.6,50.9z M57.8,44.2l-0.3-0.3l1.8-1.8l2.1,2.1H57.8z M57.4,42.6l-1.2-1.2l1.2-1.2l1.2,1.2L57.4,42.6z
	 M57.5,38.8l0.3-0.3h3.6l-2.1,2.1L57.5,38.8z M63.8,31.1l-0.7,0.7h-6.7l2.6-2.6h4.8V31.1z M60,28.2l3.8-3.8v3.8H60z M64.8,24.9
	l3.3,3.3h-3.3V24.9z M54.6,22.7v-3.8h3.8L54.6,22.7z M54.6,17.9v-3.3l3.3,3.3H54.6z M48.6,15.4l-2.3-2.3h4.6L48.6,15.4z M44.2,19.9
	l-2.8,2.8l-2.8-2.8v-7.4l2.8-2.8l2.8,2.8V19.9z M34.1,15.4l-2.3-2.3h4.6L34.1,15.4z M28.2,17.9h-3.3l3.3-3.3V17.9z M28.2,18.9v3.8
	l-3.8-3.8H28.2z M17.9,28.2h-3.3l3.3-3.3V28.2z M15.5,34.1l-2.3,2.3v-4.6L15.5,34.1z M16.2,34.8l2.7,2.7h-5.4L16.2,34.8z M15.5,48.6
	l-2.3,2.3v-4.6L15.5,48.6z M17.9,54.5v3.3l-3.3-3.3C14.6,54.5,17.9,54.5,17.9,54.5z M28.2,60v3.8h-3.8L28.2,60z M28.2,64.8V68
	l-3.3-3.3h3.3V64.8z M34.1,67.2l2.3,2.3h-4.6L34.1,67.2z M38.5,62.8l2.9-2.8l2.8,2.8v7.4l-2.8,2.9l-2.8-2.8v-7.5H38.5z M48.6,67.2
	l2.3,2.3h-4.6L48.6,67.2z M54.6,64.8h3.3L54.6,68V64.8z M54.6,63.8V60l3.8,3.8H54.6z M64.8,54.5h3.3l-3.3,3.3V54.5z M67.3,48.6
	l2.3-2.3v4.6L67.3,48.6z M66.6,47.9l-2.7-2.7h5.4L66.6,47.9z M67.3,34.1l2.3-2.3v4.6L67.3,34.1z M66.6,33.4l-1.8-1.8v-2.5h4.3
	l0.5,0.5v0.7L66.6,33.4z M70.6,29.2L70.6,29.2l0.2-0.1L70.6,29.2L70.6,29.2z M69.5,28.2l-4.7-4.7v-5.6h-5.6l-4.7-4.7v-0.1h7.9
	l7.1,7.1V28.2L69.5,28.2z M53.5,12.1L53.5,12.1l0.1-0.2L53.5,12.1L53.5,12.1z M51.9,12.1h-6.6l-4-4l-4,4h-6.6L30.6,12l5.6-5.6h10.2
	L51.9,12.1L51.9,12.1z M29.3,12.1L29.3,12.1l-0.1-0.2L29.3,12.1L29.3,12.1z M28.2,13.2l-4.7,4.7h-5.6v5.6l-4.7,4.7h-0.1v-7.9
	l7.1-7.1H28.2L28.2,13.2z M12.2,29.2L12.2,29.2L12,29.1L12.2,29.2L12.2,29.2z M12.2,30.8v6.6l-4,4l4,4V52l-0.1,0l-5.6-5.6V36.3
	L12.2,30.8L12.2,30.8z M12.2,53.4L12.2,53.4L12,53.5L12.2,53.4L12.2,53.4z M13.3,54.5l4.7,4.7v5.6h5.6l4.7,4.7v0.1h-7.9l-7.1-7.1
	L13.3,54.5L13.3,54.5z M29.3,70.6L29.3,70.6l-0.1,0.2L29.3,70.6L29.3,70.6z M30.8,70.6h6.6l3.9,3.9l3.9-3.9h6.6l0.1,0.1l-5.5,5.5
	H36.3L30.8,70.6L30.8,70.6z M53.5,70.6L53.5,70.6l0.1,0.2L53.5,70.6L53.5,70.6z M54.6,69.5l4.7-4.7h5.6v-5.6l4.7-4.7h0.1v7.9
	l-7.3,7.2L54.6,69.5L54.6,69.5z M70.6,53.4L70.6,53.4l0.2,0.1L70.6,53.4L70.6,53.4z M70.6,51.9v-6.6l4-4l-4-4v-6.6l0.1-0.1l5.6,5.6
	v10.1L70.6,51.9L70.6,51.9z M76.2,29.2v5.7L71.4,30l0.9-0.9h3.9V29.2z M74.6,25.3l-2.8,2.8h-1.2v-6.9L74.6,25.3z M69.6,13.1v5.7
	l-5.7-5.7C63.9,13.1,69.6,13.1,69.6,13.1z M57.4,8.1l4,4h-6.9v-1.2L57.4,8.1z M53.6,6.5v4l-0.9,0.9l-4.9-4.9H53.6z M41.4,1.5l4,4
	h-8.1L41.4,1.5z M29.2,6.5h5.7L30,11.4l-0.9-0.9v-4H29.2z M25.4,8.1l2.8,2.8v1.2h-6.9L25.4,8.1z M13.2,13.1h5.7l-5.7,5.7V13.1z
	 M8.1,25.3l4-4v6.9h-1.2L8.1,25.3z M6.5,29.2h4l0.9,0.8l-4.9,4.9V29.2z M1.5,41.3l4-4v8.1L1.5,41.3z M6.5,53.5v-5.7l4.9,4.9
	l-0.9,0.9h-4V53.5z M8.1,57.4l2.8-2.8h1.2v6.9L8.1,57.4z M13.2,69.6v-5.7l5.7,5.7H13.2z M25.4,74.6l-4-4h6.9v1.2L25.4,74.6z
	 M29.2,76.2v-4l0.9-0.9l4.9,4.9H29.2z M41.4,81.2l-4-4h8L41.4,81.2z M53.6,76.2h-5.7l4.9-4.9l0.9,0.9v4H53.6z M57.4,74.6l-2.8-2.8
	v-1.2h6.8L57.4,74.6z M69.6,69.6h-5.7l5.7-5.7V69.6z M74.6,57.4l-4,4v-6.9h1.2L74.6,57.4z M72.2,53.5l-0.8-0.8l4.9-4.9v5.7H72.2z"/>
</svg>
