<svg xmlns="http://www.w3.org/2000/svg" viewBox="0 0 74.7 74"><g fill="#F7F9F9"><path d="M16.6 47.6L35 66l1.4 1.4c4.3 4.3 9.9 6.6 15.9 6.6s11.7-2.4 15.9-6.6c6.1-6.1 8.1-14.9 5.3-23.1v-.2l-9.3-22.4c-.7-1.6-1.9-2.8-3.5-3.5-.7-.3-1.6-.5-2.4-.5-.9 0-1.7.2-2.5.5s-1.5.8-2.1 1.4c-1.9 1.9-2.4 4.6-1.4 7 0 .1.1.2.1.3L39.2 14c-1.2-1.2-2.8-1.9-4.5-1.9s-3.3.7-4.5 1.9c-.7.7-1.2 1.6-1.5 2.5-1-.6-2.1-.9-3.3-.9-1.5 0-2.9.5-4 1.4-1.3 1.1-1.8 2.5-2 2.9v.2c-.5 1.7-.3 3.5.6 5-1 .3-1.8.8-2.5 1.5-2.5 2.5-2.5 6.6 0 9.1l1.5 1.5c-.9.4-1.6.8-2.3 1.5-1 .9-1.6 2.1-1.8 3.4-.3 2 .4 4.1 1.7 5.5zm2-5c.1-.5.3-1 .7-1.4.5-.5 1.2-.8 1.9-.8s1.4.3 1.9.8l.8.8 12.8 12.8c.3.3.8.5 1.3.5s.9-.1 1.3-.5c.7-.7.7-1.9 0-2.6l-2.6-2.6-.6-.6-16-15.9c-1-1.1-1-2.8 0-3.8.5-.5 1.2-.8 1.9-.8s1.4.3 1.9.8l16.8 16.8c.4.3.8.5 1.2.5h.2c.5 0 .9-.1 1.3-.5.3-.3.5-.7.5-1.1.1-.5-.1-1.1-.5-1.5L23.5 23.6c-.7-.7-1-1.7-.7-2.6.2-.4.4-.9.9-1.3s1.1-.6 1.7-.6c.7 0 1.4.3 1.9.8l19.9 19.7.3.3c.3.2.7.3 1 .3.5 0 .9-.1 1.3-.5.7-.7.7-1.9 0-2.6l-.6-.6-16.3-16.3c-1-1.1-1-2.8 0-3.8.5-.5 1.2-.8 1.9-.8s1.4.3 1.9.8l13.9 13.9 3.4 3.4 5.5 5.5c.4.4.7.6 1 .6.6 0 .9-.7.6-1.5-.5-1.2-5.3-13.1-5.3-13.1-.4-1-.2-2.1.6-2.9.3-.3.6-.5.9-.6.3-.1.7-.2 1-.2s.7.1 1 .2c.6.2 1.1.7 1.4 1.4L70 45.5c2.3 6.8.6 14.2-4.5 19.3-3.6 3.7-8.4 5.5-13.2 5.5s-9.6-1.9-13.2-5.5l-1.4-1.4L19.4 45c-.7-.6-.9-1.5-.8-2.4zM0 36.1c0 9 3.5 17.5 9.9 23.9.2.2.5.3.7.3s.5-.1.7-.3c.4-.4.4-1 0-1.4-6-6-9.3-14-9.3-22.5 0-.6-.4-1-1-1-.5 0-1 .4-1 1zM5.7 36.1c0 7.6 2.9 14.8 8.2 20.3.2.2.4.3.7.3.3 0 .5-.1.7-.3.4-.4.4-1 0-1.4-4.9-5.1-7.6-11.8-7.6-18.9 0-.6-.4-1-1-1-.5 0-1 .4-1 1zM57.6 11.3c.4-.4.4-1 0-1.4C51.2 3.5 42.7 0 33.7 0c-.5 0-1 .4-1 1s.4 1 1 1c8.5 0 16.5 3.3 22.5 9.3.2.2.4.3.7.3.2 0 .5-.1.7-.3zM32.7 6.4c0 .5.4 1 1 1 7 .2 13.6 3.1 18.5 8 .2.2.5.3.7.3s.5-.1.7-.3c.4-.4.4-1 0-1.4-5.3-5.3-12.4-8.4-19.9-8.6-.6-.1-1.1.4-1 1z"/></g></svg>